HIERARCHY
ROOT hip
{
  OFFSET 0 0 0
  CHANNELS 6 Xposition Yposition Zposition Zrotation Yrotation Xrotation
  JOINT abdomen
  {
    OFFSET 0 20.6881 -0.73152
    CHANNELS 3 Zrotation Xrotation Yrotation
    JOINT chest
    {
      OFFSET 0 11.7043 -0.48768
      CHANNELS 3 Zrotation Xrotation Yrotation
      JOINT neck
      {
        OFFSET 0 22.1894 -2.19456
        CHANNELS 3 Zrotation Xrotation Yrotation
        JOINT head
        {
          OFFSET -0.24384 7.07133 1.2192
          CHANNELS 3 Zrotation Xrotation Yrotation
          JOINT leftEye
          {
            OFFSET 4.14528 8.04674 8.04672
            CHANNELS 3 Zrotation Xrotation Yrotation
            End Site
            {
              OFFSET 1 0 0
            }
          }
          JOINT rightEye
          {
            OFFSET -3.6576 8.04674 8.04672
            CHANNELS 3 Zrotation Xrotation Yrotation
            End Site
            {
              OFFSET 1 0 0
            }
          }
        }
      }
      JOINT rCollar
      {
        OFFSET -2.68224 19.2634 -4.8768
        CHANNELS 3 Zrotation Xrotation Yrotation
        JOINT rShldr
        {
          OFFSET -8.77824 -1.95073 1.46304
          CHANNELS 3 Zrotation Xrotation Yrotation
          JOINT rForeArm
          {
            OFFSET -28.1742 -1.7115 0.48768
            CHANNELS 3 Zrotation Xrotation Yrotation
            JOINT rHand
            {
              OFFSET -22.5879 0.773209 7.07136
              CHANNELS 3 Zrotation Xrotation Yrotation
              JOINT rThumb1
              {
                OFFSET -1.2192 -0.487915 3.41376
                CHANNELS 3 Zrotation Xrotation Yrotation
                JOINT rThumb2
                {
                  OFFSET -3.37035 -0.52449 3.41376
                  CHANNELS 3 Zrotation Xrotation Yrotation
                  End Site
                  {
                    OFFSET -1.78271 -1.18214 1.43049
                  }
                }
              }
              JOINT rIndex1
              {
                OFFSET -7.75947 0.938293 5.60832
                CHANNELS 3 Zrotation Xrotation Yrotation
                JOINT rIndex2
                {
                  OFFSET -2.54057 -0.884171 1.56538
                  CHANNELS 3 Zrotation Xrotation Yrotation
                  End Site
                  {
                    OFFSET -1.62519 -0.234802 1.16502
                  }
                }
              }
              JOINT rMid1
              {
                OFFSET -8.24714 1.18213 3.41376
                CHANNELS 3 Zrotation Xrotation Yrotation
                JOINT rMid2
                {
                  OFFSET -3.10165 -0.590103 1.0647
                  CHANNELS 3 Zrotation Xrotation Yrotation
                  End Site
                  {
                    OFFSET -2.48547 -0.328903 0.83742
                  }
                }
              }
              JOINT rRing1
              {
                OFFSET -8.82822 0.546677 1.51678
                CHANNELS 3 Zrotation Xrotation Yrotation
                JOINT rRing2
                {
                  OFFSET -2.60934 -0.819778 -0.0198488
                  CHANNELS 3 Zrotation Xrotation Yrotation
                  End Site
                  {
                    OFFSET -2.33842 -0.294052 0.168128
                  }
                }
              }
              JOINT rPinky1
              {
                OFFSET -8.27202 -0.0477905 -0.4584
                CHANNELS 3 Zrotation Xrotation Yrotation
                JOINT rPinky2
                {
                  OFFSET -1.82734 -0.647385 -0.700984
                  CHANNELS 3 Zrotation Xrotation Yrotation
                  End Site
                  {
                    OFFSET -1.69225 -0.51767 -0.607171
                  }
                }
              }
            }
          }
        }
      }
      JOINT lCollar
      {
        OFFSET 2.68224 19.2634 -4.8768
        CHANNELS 3 Zrotation Xrotation Yrotation
        JOINT lShldr
        {
          OFFSET 8.77824 -1.95073 1.46304
          CHANNELS 3 Zrotation Xrotation Yrotation
          JOINT lForeArm
          {
            OFFSET 28.1742 -1.7115 0.48768
            CHANNELS 3 Zrotation Xrotation Yrotation
            JOINT lHand
            {
              OFFSET 22.5879 0.773209 7.07136
              CHANNELS 3 Zrotation Xrotation Yrotation
              JOINT lThumb1
              {
                OFFSET 1.2192 -0.487915 3.41376
                CHANNELS 3 Zrotation Xrotation Yrotation
                JOINT lThumb2
                {
                  OFFSET 3.37035 -0.52449 3.41376
                  CHANNELS 3 Zrotation Xrotation Yrotation
                  End Site
                  {
                    OFFSET 1.78271 -1.18214 1.43049
                  }
                }
              }
              JOINT lIndex1
              {
                OFFSET 7.75947 0.938293 5.60832
                CHANNELS 3 Zrotation Xrotation Yrotation
                JOINT lIndex2
                {
                  OFFSET 2.54057 -0.884171 1.56538
                  CHANNELS 3 Zrotation Xrotation Yrotation
                  End Site
                  {
                    OFFSET 1.62519 -0.234802 1.16502
                  }
                }
              }
              JOINT lMid1
              {
                OFFSET 8.24714 1.18213 3.41376
                CHANNELS 3 Zrotation Xrotation Yrotation
                JOINT lMid2
                {
                  OFFSET 3.10165 -0.590103 1.0647
                  CHANNELS 3 Zrotation Xrotation Yrotation
                  End Site
                  {
                    OFFSET 2.48547 -0.328903 0.83742
                  }
                }
              }
              JOINT lRing1
              {
                OFFSET 8.82822 0.546677 1.51678
                CHANNELS 3 Zrotation Xrotation Yrotation
                JOINT lRing2
                {
                  OFFSET 2.60934 -0.819778 -0.0198488
                  CHANNELS 3 Zrotation Xrotation Yrotation
                  End Site
                  {
                    OFFSET 2.33842 -0.294052 0.168128
                  }
                }
              }
              JOINT lPinky1
              {
                OFFSET 8.27202 -0.0477905 -0.4584
                CHANNELS 3 Zrotation Xrotation Yrotation
                JOINT lPinky2
                {
                  OFFSET 1.82734 -0.647385 -0.700984
                  CHANNELS 3 Zrotation Xrotation Yrotation
                  End Site
                  {
                    OFFSET 1.69225 -0.51767 -0.607171
                  }
                }
              }
            }
          }
        }
      }
    }
  }
  JOINT rButtock
  {
    OFFSET -8.77824 4.35084 1.2192
    CHANNELS 3 Zrotation Xrotation Yrotation
    JOINT rThigh
    {
      OFFSET 0 -1.70687 -2.19456
      CHANNELS 3 Zrotation Xrotation Yrotation
      JOINT rShin
      {
        OFFSET 0 -36.8199 0.73152
        CHANNELS 3 Zrotation Xrotation Yrotation
        JOINT rFoot
        {
          OFFSET 0.73152 -45.1104 -5.12064
          CHANNELS 3 Zrotation Xrotation Yrotation
          End Site
          {
            OFFSET -1.1221 -3.69964 12.103
          }
        }
      }
    }
  }
  JOINT lButtock
  {
    OFFSET 8.77824 4.35084 1.2192
    CHANNELS 3 Zrotation Xrotation Yrotation
    JOINT lThigh
    {
      OFFSET 0 -1.70687 -2.19456
      CHANNELS 3 Zrotation Xrotation Yrotation
      JOINT lShin
      {
        OFFSET 0 -36.8199 0.73152
        CHANNELS 3 Zrotation Xrotation Yrotation
        JOINT lFoot
        {
          OFFSET -0.73152 -45.1104 -5.12064
          CHANNELS 3 Zrotation Xrotation Yrotation
          End Site
          {
            OFFSET 1.1221 -3.69964 12.103
          }
        }
      }
    }
  }
}
MOTION
Frames:	4
Frame Time:	0.03333
0.028399999822837776 59.559201751187 0.8370000021123909 -9.285300254821777 -28.124597549438477 7.4279985427856445 4.61067008972168 12.469498634338379 10.825799942016602 0.6878189444541931 -8.05034065246582 3.1433498859405518 -4.354730606079102 13.18429946899414 -1.529590129852295 6.230700492858887 -21.293699264526367 -1.6354000568389893 -0.0 0.0 -0.0 -0.0 0.0 -0.0 -2.453559816255335e-13 -1.4508899181912838e-13 4.623689855331103e-15 64.5855941772461 45.17449951171875 5.991408824920654 -19.98360252380371 -12.990799903869629 38.64140319824219 -0.1405779868364334 10.62820053100586 1.511240005493164 1.516689995817444e-09 -3.320159702724368e-09 1.327740029033464e-09 2.6302799938093813e-09 -5.737670338845646e-09 2.282759981042659e-09 1.516689995817444e-09 -3.320159702724368e-09 1.327740029033464e-09 7.730909824371338 5.474879741668701 0.4173140823841095 1.516689995817444e-09 -3.320159702724368e-09 1.327740029033464e-09 2.9055399894714355 0.9651829600334167 0.10290199518203735 1.516689995817444e-09 -3.320159702724368e-09 1.327740029033464e-09 10.27859878540039 0.73180091381073 0.025912316516041756 1.5166800038102224e-09 -3.320159702724368e-09 1.3277499100183832e-09 2.221669912338257 -0.733487069606781 -0.208919957280159 -2.4536899205160334e-13 -1.4508601026315404e-13 4.470719516705239e-15 -71.39710235595703 17.351900100708008 -9.101099014282227 12.663399696350098 -5.924910068511963 -22.901697158813477 0.38725802302360535 17.419397354125977 -2.527290105819702 1.7442000066481e-09 4.083930082998677e-09 2.4587096802974884e-09 3.047969876490697e-09 7.0575296717834135e-09 4.221969884810051e-09 1.7441897925962735e-09 4.083930082998677e-09 2.4587298863565366e-09 -7.730909824371338 5.474879741668701 -0.4173140823841095 1.7442000066481e-09 4.083930082998677e-09 2.4587096802974884e-09 -2.9055399894714355 0.9651829600334167 -0.10290199518203735 1.7442000066481e-09 4.083930082998677e-09 2.4587096802974884e-09 -10.27859878540039 0.73180091381073 -0.025912316516041756 1.7442098876330192e-09 4.083930082998677e-09 2.4587096802974884e-09 -2.221669912338257 -0.733487069606781 0.208919957280159 -2.0321699480147914e-16 0.0 -3.8825099822884138e-19 -12.15679931640625 7.9229512214660645 -4.834799766540527 -0.032471999526023865 36.70980453491211 2.1210100650787354 -12.713899612426758 -18.763202667236328 -33.22880172729492 2.0321699480147914e-16 0.0 3.8825099822884138e-19 60.42399597167969 -51.421504974365234 57.19770050048828 4.127739906311035 78.0125961303711 -4.468260288238525 2.1199798583984375 -10.721900939941406 5.777369499206543
0.03169999984229799 59.472499329862856 1.0960000017069076 -9.257099151611328 -28.086400985717773 7.803100109100342 4.622509956359863 12.579901695251465 10.842401504516602 0.6559849977493286 -8.15742015838623 3.1475398540496826 -4.285900115966797 13.17180061340332 -1.4583499431610107 6.136969566345215 -21.64520263671875 -1.4970299005508423 -0.0 0.0 -0.0 -0.0 0.0 -0.0 -1.6025100354772476e-13 -1.500380088182915e-13 -2.399709933802868e-13 63.073299407958984 45.84920120239258 7.796198844909668 -20.27509880065918 -13.362099647521973 39.35049819946289 -0.1409199982881546 10.642099380493164 1.5132601261138916 9.648709609066941e-10 -2.5061899222578177e-09 1.3400101028793188e-09 1.6774098776650703e-09 -4.3390602222359576e-09 2.3105197755057816e-09 9.648789545124714e-10 -2.5061999142650393e-09 1.3400101028793188e-09 7.730909824371338 5.474879741668701 0.4173140823841095 9.648719601074163e-10 -2.5061999142650393e-09 1.3400101028793188e-09 2.9055399894714355 0.9651829600334167 0.10290199518203735 9.64876956111027e-10 -2.5061999142650393e-09 1.3400101028793188e-09 10.27859878540039 0.73180091381073 0.025912316516041756 9.648659649030833e-10 -2.5061999142650393e-09 1.340019983864238e-09 2.221669912338257 -0.733487069606781 -0.208919957280159 -1.6023998534314687e-13 -1.5003899815277388e-13 -2.4008198857769503e-13 -71.15409088134766 17.09090232849121 -9.387510299682617 12.548900604248047 -5.84119987487793 -22.67730140686035 0.39238595962524414 17.53070068359375 -2.544490337371826 2.6027497934677513e-09 3.3014599942760015e-09 1.198599886009788e-09 4.511000017970446e-09 5.672519787225383e-09 2.0308701387250494e-09 2.6027400235051346e-09 3.3014599942760015e-09 1.1986199810465337e-09 -7.730909824371338 5.474879741668701 -0.4173140823841095 2.6027497934677513e-09 3.3014599942760015e-09 1.198609989039312e-09 -2.9055399894714355 0.9651829600334167 -0.10290199518203735 2.6027400235051346e-09 3.3014599942760015e-09 1.198609989039312e-09 -10.27859878540039 0.73180091381073 -0.025912316516041756 2.6027497934677513e-09 3.3014599942760015e-09 1.198599886009788e-09 -2.221669912338257 -0.733487069606781 0.208919957280159 -2.0321699480147914e-16 0.0 -3.8825099822884138e-19 -12.278399467468262 7.916520595550537 -5.020328998565674 -0.02794249728322029 36.43300247192383 2.117259979248047 -12.521100044250488 -18.538297653198242 -33.13670349121094 2.0321699480147914e-16 0.0 3.8825099822884138e-19 60.79500198364258 -51.72700500488281 57.60629653930664 4.2605791091918945 78.37720489501953 -4.65032958984375 2.5555098056793213 -10.855401039123535 7.103249549865723
0.07589999824592854 59.40360321170494 1.3730000043636408 -9.394200325012207 -28.110097885131836 8.078800201416016 4.782490253448486 12.61609935760498 10.735899925231934 0.6421620845794678 -8.230109214782715 3.1221401691436768 -4.180409908294678 13.12900161743164 -1.3686599731445312 5.865549564361572 -21.96259880065918 -1.3579801321029663 -0.0 0.0 -0.0 -0.0 0.0 -0.0 6.680559697016392e-14 -8.74841038912659e-14 -2.953609850187694e-13 61.31449890136719 46.587406158447266 9.836530685424805 -20.594301223754883 -13.778000831604004 40.14250183105469 -0.14970499277114868 10.9635009765625 1.5600999593734741 -6.398350183012269e-10 7.172479277173238e-10 3.383359703512667e-10 -1.101929991698114e-09 1.2230799706358653e-09 5.933010194247856e-10 -6.398239715821319e-10 7.172439864255864e-10 3.3831398793537915e-10 7.730909824371338 5.474879741668701 0.4173140823841095 -6.398350183012269e-10 7.172389349108244e-10 3.3832997514693375e-10 2.9055399894714355 0.9651829600334167 0.10290199518203735 -6.398270246954496e-10 7.172389349108244e-10 3.3833100210323153e-10 10.27859878540039 0.73180091381073 0.025912316516041756 -6.3983696119152e-10 7.172409888234199e-10 3.383339719498224e-10 2.221669912338257 -0.733487069606781 -0.208919957280159 6.666330221128877e-14 -8.74841038912659e-14 -2.955789909706019e-13 -70.94059753417969 16.707101821899414 -9.67586898803711 12.402297973632812 -5.734749794006348 -22.391202926635742 0.40418699383735657 17.781099319458008 -2.5832901000976562 1.734929866437085e-09 -5.519569801215596e-10 -1.6481499498510743e-09 2.9700097936569136e-09 -1.0075000833609238e-09 -2.8750599678772915e-09 1.734929866437085e-09 -5.519559809208374e-10 -1.6481499498510743e-09 -7.730909824371338 5.474879741668701 -0.4173140823841095 1.7349398584443065e-09 -5.519529833186709e-10 -1.6481499498510743e-09 -2.9055399894714355 0.9651829600334167 -0.10290199518203735 1.734929866437085e-09 -5.519549817201153e-10 -1.6481598308359935e-09 -10.27859878540039 0.73180091381073 -0.025912316516041756 1.7349398584443065e-09 -5.519549817201153e-10 -1.6481699338655176e-09 -2.221669912338257 -0.733487069606781 0.208919957280159 -2.0321699480147914e-16 0.0 -3.8825099822884138e-19 -12.277298927307129 8.014209747314453 -5.22544002532959 -0.02080170065164566 35.939002990722656 2.1063899993896484 -12.254098892211914 -18.209800720214844 -33.02790069580078 2.0321699480147914e-16 0.0 3.8825099822884138e-19 61.29350280761719 -52.11219787597656 58.08300018310547 4.425400257110596 78.80440521240234 -4.878429889678955 3.09945011138916 -10.927699089050293 8.752569198608398
0.11999999841124186 59.28589856173811 1.741000004714629 -9.573599815368652 -27.93720054626465 8.619701385498047 4.916500091552734 12.685999870300293 10.75049877166748 0.6459589600563049 -8.365041732788086 3.134129762649536 -4.148060321807861 13.135700225830078 -1.3134698867797852 5.810770034790039 -22.3944034576416 -1.2384897470474243 -0.0 0.0 -0.0 -0.0 0.0 -0.0 8.458279920648543e-14 -5.677960001043009e-15 -1.995689990217167e-13 59.464691162109375 47.24789810180664 11.965103149414062 -20.914196014404297 -14.206899642944336 40.94759750366211 -0.15908201038837433 11.296501159667969 1.6087201833724976 -7.375579591517578e-10 1.3304699564287148e-09 -1.731930016068972e-10 -1.2740198895855315e-09 2.2920298992090693e-09 -2.9268001910942587e-10 -7.375479671445362e-10 1.3304699564287148e-09 -1.7321598322350695e-10 7.730909824371338 5.474879741668701 0.4173140823841095 -7.375539068377179e-10 1.3304599644214932e-09 -1.7319799761050803e-10 2.9055399894714355 0.9651829600334167 0.10290199518203735 -7.375479671445362e-10 1.3304599644214932e-09 -1.7319799761050803e-10 10.27859878540039 0.73180091381073 0.025912316516041756 -7.375569599510357e-10 1.3304599644214932e-09 -1.7319500000834154e-10 2.221669912338257 -0.733487069606781 -0.208919957280159 8.437149497933158e-14 -5.678589770039292e-15 -1.9980698139857728e-13 -70.73229217529297 16.411296844482422 -9.982248306274414 12.242999076843262 -5.620548725128174 -22.08099937438965 0.4200190305709839 18.11309814453125 -2.63489031791687 -2.025589938836614e-11 -1.9791599470408983e-09 -1.6975900685167744e-09 -6.310619388161243e-11 -3.4437499518702452e-09 -2.9323496963939988e-09 -2.025329903787565e-11 -1.9791499550336766e-09 -1.6975900685167744e-09 -7.730909824371338 5.474879741668701 -0.4173140823841095 -2.0254098745398075e-11 -1.9791499550336766e-09 -1.6975999495016936e-09 -2.9055399894714355 0.9651829600334167 -0.10290199518203735 -2.0258199631695284e-11 -1.9791499550336766e-09 -1.6975999495016936e-09 -10.27859878540039 0.73180091381073 -0.025912316516041756 -2.0247898843694934e-11 -1.9791499550336766e-09 -1.6976098304866127e-09 -2.221669912338257 -0.733487069606781 0.208919957280159 -2.0321699480147914e-16 0.0 -3.8825099822884138e-19 -12.177299499511719 8.21288013458252 -5.241729259490967 -0.01169699989259243 35.294403076171875 2.0910897254943848 -12.012898445129395 -17.808998107910156 -33.07130432128906 2.0321699480147914e-16 0.0 3.8825099822884138e-19 61.81159973144531 -52.392906188964844 58.61149215698242 4.644310474395752 79.31131744384766 -5.161100387573242 3.5991101264953613 -11.155198097229004 10.141300201416016
